<?xml version="1.0" standalone="no"?>
<!DOCTYPE svg PUBLIC "-//W3C//DTD SVG 20010904//EN"
 "http://www.w3.org/TR/2001/REC-SVG-20010904/DTD/svg10.dtd">
<svg version="1.0" xmlns="http://www.w3.org/2000/svg"
 width="512.000000pt" height="512.000000pt" viewBox="0 0 512.000000 512.000000"
 preserveAspectRatio="xMidYMid meet">

<g transform="translate(0.000000,512.000000) scale(0.100000,-0.100000)"
fill="#000000" stroke="none">
<path fill ="#FFFFFF" d="M3480 4411 c-14 -5 -39 -15 -55 -24 -17 -8 -349 -281 -740 -605
l-710 -591 -5 492 c-5 476 -6 494 -26 538 -64 137 -214 211 -356 174 -99 -25
-160 -74 -210 -168 l-23 -42 -3 -1607 c-2 -1591 -2 -1607 18 -1661 26 -70 75
-125 141 -162 49 -27 62 -30 149 -30 80 0 102 4 138 23 58 31 114 88 143 148
l24 49 5 492 5 492 710 -591 c391 -324 726 -598 747 -609 113 -58 255 -12 312
103 l26 52 0 1676 0 1676 -26 52 c-48 96 -168 152 -264 123z"/>
</g>
</svg>
